<mxfile host="Electron" agent="Mozilla/5.0 (Macintosh; Intel Mac OS X 10_15_7) AppleWebKit/537.36 (KHTML, like Gecko) draw.io/27.0.5 Chrome/134.0.6998.205 Electron/35.3.0 Safari/537.36" version="27.0.5" pages="5">
  <diagram name="systemarchitecture" id="_JQcq0WNwZs_4ruiHwo9">
    <mxGraphModel dx="1357" dy="920" grid="1" gridSize="10" guides="1" tooltips="1" connect="1" arrows="1" fold="1" page="1" pageScale="1" pageWidth="827" pageHeight="1169" math="0" shadow="0">
      <root>
        <mxCell id="0" />
        <mxCell id="1" parent="0" />
        <mxCell id="gf8ne0d5S9BsFmwKvIPn-1" value="Visualization" style="whiteSpace=wrap;strokeWidth=2;align=left;verticalAlign=top;" vertex="1" parent="1">
          <mxGeometry x="20" y="625" width="720" height="104" as="geometry" />
        </mxCell>
        <mxCell id="gf8ne0d5S9BsFmwKvIPn-2" value="Processing" style="whiteSpace=wrap;strokeWidth=2;align=left;verticalAlign=top;" vertex="1" parent="1">
          <mxGeometry x="104" y="263" width="535" height="312" as="geometry" />
        </mxCell>
        <mxCell id="gf8ne0d5S9BsFmwKvIPn-3" value="Frontend" style="whiteSpace=wrap;strokeWidth=2;align=left;verticalAlign=top;" vertex="1" parent="1">
          <mxGeometry x="760" y="30" width="438" height="828" as="geometry" />
        </mxCell>
        <mxCell id="gf8ne0d5S9BsFmwKvIPn-4" value="Streamlit UI" style="whiteSpace=wrap;strokeWidth=2;" vertex="1" parent="1">
          <mxGeometry x="901" y="55" width="146" height="54" as="geometry" />
        </mxCell>
        <mxCell id="gf8ne0d5S9BsFmwKvIPn-5" value="File Upload" style="whiteSpace=wrap;strokeWidth=2;" vertex="1" parent="1">
          <mxGeometry x="796" y="159" width="141" height="54" as="geometry" />
        </mxCell>
        <mxCell id="gf8ne0d5S9BsFmwKvIPn-6" value="Webcam Stream" style="whiteSpace=wrap;strokeWidth=2;" vertex="1" parent="1">
          <mxGeometry x="987" y="159" width="176" height="54" as="geometry" />
        </mxCell>
        <mxCell id="gf8ne0d5S9BsFmwKvIPn-7" value="Results Display" style="whiteSpace=wrap;strokeWidth=2;" vertex="1" parent="1">
          <mxGeometry x="897" y="779" width="166" height="54" as="geometry" />
        </mxCell>
        <mxCell id="gf8ne0d5S9BsFmwKvIPn-8" value="Media Preprocessing" style="whiteSpace=wrap;strokeWidth=2;" vertex="1" parent="1">
          <mxGeometry x="285" y="288" width="205" height="54" as="geometry" />
        </mxCell>
        <mxCell id="gf8ne0d5S9BsFmwKvIPn-9" value="YOLO Model" style="whiteSpace=wrap;strokeWidth=2;" vertex="1" parent="1">
          <mxGeometry x="314" y="392" width="146" height="54" as="geometry" />
        </mxCell>
        <mxCell id="gf8ne0d5S9BsFmwKvIPn-10" value="Violation Analysis" style="whiteSpace=wrap;strokeWidth=2;" vertex="1" parent="1">
          <mxGeometry x="295" y="496" width="184" height="54" as="geometry" />
        </mxCell>
        <mxCell id="gf8ne0d5S9BsFmwKvIPn-11" value="Detection Drawing" style="whiteSpace=wrap;strokeWidth=2;" vertex="1" parent="1">
          <mxGeometry x="55" y="650" width="192" height="54" as="geometry" />
        </mxCell>
        <mxCell id="gf8ne0d5S9BsFmwKvIPn-12" value="Violation Metrics" style="whiteSpace=wrap;strokeWidth=2;" vertex="1" parent="1">
          <mxGeometry x="297" y="650" width="180" height="54" as="geometry" />
        </mxCell>
        <mxCell id="gf8ne0d5S9BsFmwKvIPn-13" value="Timeline Display" style="whiteSpace=wrap;strokeWidth=2;" vertex="1" parent="1">
          <mxGeometry x="527" y="650" width="178" height="54" as="geometry" />
        </mxCell>
        <mxCell id="gf8ne0d5S9BsFmwKvIPn-14" value="" style="curved=1;startArrow=none;endArrow=block;exitX=0.12;exitY=1;entryX=0.5;entryY=0;rounded=0;" edge="1" parent="1" source="gf8ne0d5S9BsFmwKvIPn-4" target="gf8ne0d5S9BsFmwKvIPn-5">
          <mxGeometry relative="1" as="geometry">
            <Array as="points">
              <mxPoint x="867" y="134" />
            </Array>
          </mxGeometry>
        </mxCell>
        <mxCell id="gf8ne0d5S9BsFmwKvIPn-15" value="" style="curved=1;startArrow=none;endArrow=block;exitX=0.86;exitY=1;entryX=0.5;entryY=0;rounded=0;" edge="1" parent="1" source="gf8ne0d5S9BsFmwKvIPn-4" target="gf8ne0d5S9BsFmwKvIPn-6">
          <mxGeometry relative="1" as="geometry">
            <Array as="points">
              <mxPoint x="1075" y="134" />
            </Array>
          </mxGeometry>
        </mxCell>
        <mxCell id="gf8ne0d5S9BsFmwKvIPn-16" value="" style="curved=1;startArrow=none;endArrow=block;exitX=0.5;exitY=1;entryX=1;entryY=0.29;rounded=0;" edge="1" parent="1" source="gf8ne0d5S9BsFmwKvIPn-5" target="gf8ne0d5S9BsFmwKvIPn-8">
          <mxGeometry relative="1" as="geometry">
            <Array as="points">
              <mxPoint x="867" y="263" />
            </Array>
          </mxGeometry>
        </mxCell>
        <mxCell id="gf8ne0d5S9BsFmwKvIPn-17" value="" style="curved=1;startArrow=none;endArrow=block;exitX=0.5;exitY=1;entryX=1;entryY=0.36;rounded=0;" edge="1" parent="1" source="gf8ne0d5S9BsFmwKvIPn-6" target="gf8ne0d5S9BsFmwKvIPn-8">
          <mxGeometry relative="1" as="geometry">
            <Array as="points">
              <mxPoint x="1075" y="263" />
            </Array>
          </mxGeometry>
        </mxCell>
        <mxCell id="gf8ne0d5S9BsFmwKvIPn-18" value="" style="curved=1;startArrow=none;endArrow=block;exitX=0.5;exitY=1;entryX=0.5;entryY=0;rounded=0;" edge="1" parent="1" source="gf8ne0d5S9BsFmwKvIPn-8" target="gf8ne0d5S9BsFmwKvIPn-9">
          <mxGeometry relative="1" as="geometry">
            <Array as="points" />
          </mxGeometry>
        </mxCell>
        <mxCell id="gf8ne0d5S9BsFmwKvIPn-19" value="" style="curved=1;startArrow=none;endArrow=block;exitX=0.5;exitY=1;entryX=0.5;entryY=0;rounded=0;" edge="1" parent="1" source="gf8ne0d5S9BsFmwKvIPn-9" target="gf8ne0d5S9BsFmwKvIPn-10">
          <mxGeometry relative="1" as="geometry">
            <Array as="points" />
          </mxGeometry>
        </mxCell>
        <mxCell id="gf8ne0d5S9BsFmwKvIPn-20" value="" style="curved=1;startArrow=none;endArrow=block;exitX=0;exitY=0.88;entryX=0.5;entryY=0;rounded=0;" edge="1" parent="1" source="gf8ne0d5S9BsFmwKvIPn-10" target="gf8ne0d5S9BsFmwKvIPn-11">
          <mxGeometry relative="1" as="geometry">
            <Array as="points">
              <mxPoint x="151" y="575" />
            </Array>
          </mxGeometry>
        </mxCell>
        <mxCell id="gf8ne0d5S9BsFmwKvIPn-21" value="" style="curved=1;startArrow=none;endArrow=block;exitX=0.5;exitY=1;entryX=0.5;entryY=0;rounded=0;" edge="1" parent="1" source="gf8ne0d5S9BsFmwKvIPn-10" target="gf8ne0d5S9BsFmwKvIPn-12">
          <mxGeometry relative="1" as="geometry">
            <Array as="points" />
          </mxGeometry>
        </mxCell>
        <mxCell id="gf8ne0d5S9BsFmwKvIPn-22" value="" style="curved=1;startArrow=none;endArrow=block;exitX=1;exitY=0.89;entryX=0.5;entryY=0;rounded=0;" edge="1" parent="1" source="gf8ne0d5S9BsFmwKvIPn-10" target="gf8ne0d5S9BsFmwKvIPn-13">
          <mxGeometry relative="1" as="geometry">
            <Array as="points">
              <mxPoint x="616" y="575" />
            </Array>
          </mxGeometry>
        </mxCell>
        <mxCell id="gf8ne0d5S9BsFmwKvIPn-23" value="" style="curved=1;startArrow=none;endArrow=block;exitX=0.5;exitY=1;entryX=0.32;entryY=0;rounded=0;" edge="1" parent="1" source="gf8ne0d5S9BsFmwKvIPn-11" target="gf8ne0d5S9BsFmwKvIPn-7">
          <mxGeometry relative="1" as="geometry">
            <Array as="points">
              <mxPoint x="151" y="729" />
              <mxPoint x="924" y="754" />
            </Array>
          </mxGeometry>
        </mxCell>
        <mxCell id="gf8ne0d5S9BsFmwKvIPn-24" value="" style="curved=1;startArrow=none;endArrow=block;exitX=0.5;exitY=1;entryX=0.51;entryY=0;rounded=0;" edge="1" parent="1" source="gf8ne0d5S9BsFmwKvIPn-12" target="gf8ne0d5S9BsFmwKvIPn-7">
          <mxGeometry relative="1" as="geometry">
            <Array as="points">
              <mxPoint x="387" y="729" />
              <mxPoint x="983" y="754" />
            </Array>
          </mxGeometry>
        </mxCell>
        <mxCell id="gf8ne0d5S9BsFmwKvIPn-25" value="" style="curved=1;startArrow=none;endArrow=block;exitX=0.5;exitY=1;entryX=0.68;entryY=0;rounded=0;" edge="1" parent="1" source="gf8ne0d5S9BsFmwKvIPn-13" target="gf8ne0d5S9BsFmwKvIPn-7">
          <mxGeometry relative="1" as="geometry">
            <Array as="points">
              <mxPoint x="616" y="729" />
              <mxPoint x="1038" y="754" />
            </Array>
          </mxGeometry>
        </mxCell>
      </root>
    </mxGraphModel>
  </diagram>
  <diagram id="kxTqhcJDcSfIEOJbtNiC" name="usecase">
    <mxGraphModel dx="1357" dy="920" grid="1" gridSize="10" guides="1" tooltips="1" connect="1" arrows="1" fold="1" page="1" pageScale="1" pageWidth="827" pageHeight="1169" math="0" shadow="0">
      <root>
        <mxCell id="0" />
        <mxCell id="1" parent="0" />
        <mxCell id="btYnKBBTRqczE2dWw31I-1" value="Use Cases" style="whiteSpace=wrap;strokeWidth=2;align=left;verticalAlign=top;" vertex="1" parent="1">
          <mxGeometry x="20" y="179" width="1792" height="128" as="geometry" />
        </mxCell>
        <mxCell id="btYnKBBTRqczE2dWw31I-2" value="User" style="whiteSpace=wrap;strokeWidth=2;align=left;verticalAlign=top;" vertex="1" parent="1">
          <mxGeometry x="94" y="20" width="1577" height="109" as="geometry" />
        </mxCell>
        <mxCell id="btYnKBBTRqczE2dWw31I-3" value="User" style="shape=cylinder3;boundedLbl=1;backgroundOutline=1;size=10;strokeWidth=2;whiteSpace=wrap;" vertex="1" parent="1">
          <mxGeometry x="774" y="45" width="47" height="59" as="geometry" />
        </mxCell>
        <mxCell id="btYnKBBTRqczE2dWw31I-4" value="Upload Image" style="whiteSpace=wrap;strokeWidth=2;" vertex="1" parent="1">
          <mxGeometry x="55" y="216" width="158" height="54" as="geometry" />
        </mxCell>
        <mxCell id="btYnKBBTRqczE2dWw31I-5" value="Upload Video" style="whiteSpace=wrap;strokeWidth=2;" vertex="1" parent="1">
          <mxGeometry x="263" y="216" width="155" height="54" as="geometry" />
        </mxCell>
        <mxCell id="btYnKBBTRqczE2dWw31I-6" value="Use Webcam" style="whiteSpace=wrap;strokeWidth=2;" vertex="1" parent="1">
          <mxGeometry x="467" y="216" width="151" height="54" as="geometry" />
        </mxCell>
        <mxCell id="btYnKBBTRqczE2dWw31I-7" value="Configure Detection Settings" style="whiteSpace=wrap;strokeWidth=2;" vertex="1" parent="1">
          <mxGeometry x="668" y="204" width="260" height="78" as="geometry" />
        </mxCell>
        <mxCell id="btYnKBBTRqczE2dWw31I-8" value="View Detection Results" style="whiteSpace=wrap;strokeWidth=2;" vertex="1" parent="1">
          <mxGeometry x="978" y="216" width="224" height="54" as="geometry" />
        </mxCell>
        <mxCell id="btYnKBBTRqczE2dWw31I-9" value="View Violation Analysis" style="whiteSpace=wrap;strokeWidth=2;" vertex="1" parent="1">
          <mxGeometry x="1252" y="216" width="223" height="54" as="geometry" />
        </mxCell>
        <mxCell id="btYnKBBTRqczE2dWw31I-10" value="Download Processed Media" style="whiteSpace=wrap;strokeWidth=2;" vertex="1" parent="1">
          <mxGeometry x="1525" y="216" width="251" height="54" as="geometry" />
        </mxCell>
        <mxCell id="btYnKBBTRqczE2dWw31I-11" value="" style="curved=1;startArrow=none;endArrow=block;exitX=0.01;exitY=0.54;entryX=0.5;entryY=0.01;rounded=0;" edge="1" parent="1" source="btYnKBBTRqczE2dWw31I-3" target="btYnKBBTRqczE2dWw31I-4">
          <mxGeometry relative="1" as="geometry">
            <Array as="points">
              <mxPoint x="134" y="129" />
            </Array>
          </mxGeometry>
        </mxCell>
        <mxCell id="btYnKBBTRqczE2dWw31I-12" value="" style="curved=1;startArrow=none;endArrow=block;exitX=0.01;exitY=0.55;entryX=0.5;entryY=0.01;rounded=0;" edge="1" parent="1" source="btYnKBBTRqczE2dWw31I-3" target="btYnKBBTRqczE2dWw31I-5">
          <mxGeometry relative="1" as="geometry">
            <Array as="points">
              <mxPoint x="340" y="129" />
            </Array>
          </mxGeometry>
        </mxCell>
        <mxCell id="btYnKBBTRqczE2dWw31I-13" value="" style="curved=1;startArrow=none;endArrow=block;exitX=0.01;exitY=0.59;entryX=0.5;entryY=0.01;rounded=0;" edge="1" parent="1" source="btYnKBBTRqczE2dWw31I-3" target="btYnKBBTRqczE2dWw31I-6">
          <mxGeometry relative="1" as="geometry">
            <Array as="points">
              <mxPoint x="543" y="129" />
            </Array>
          </mxGeometry>
        </mxCell>
        <mxCell id="btYnKBBTRqczE2dWw31I-14" value="" style="curved=1;startArrow=none;endArrow=block;exitX=0.51;exitY=1.01;entryX=0.5;entryY=0.01;rounded=0;" edge="1" parent="1" source="btYnKBBTRqczE2dWw31I-3" target="btYnKBBTRqczE2dWw31I-7">
          <mxGeometry relative="1" as="geometry">
            <Array as="points" />
          </mxGeometry>
        </mxCell>
        <mxCell id="btYnKBBTRqczE2dWw31I-15" value="" style="curved=1;startArrow=none;endArrow=block;exitX=1;exitY=0.58;entryX=0.5;entryY=0.01;rounded=0;" edge="1" parent="1" source="btYnKBBTRqczE2dWw31I-3" target="btYnKBBTRqczE2dWw31I-8">
          <mxGeometry relative="1" as="geometry">
            <Array as="points">
              <mxPoint x="1090" y="129" />
            </Array>
          </mxGeometry>
        </mxCell>
        <mxCell id="btYnKBBTRqczE2dWw31I-16" value="" style="curved=1;startArrow=none;endArrow=block;exitX=1;exitY=0.54;entryX=0.5;entryY=0.01;rounded=0;" edge="1" parent="1" source="btYnKBBTRqczE2dWw31I-3" target="btYnKBBTRqczE2dWw31I-9">
          <mxGeometry relative="1" as="geometry">
            <Array as="points">
              <mxPoint x="1363" y="129" />
            </Array>
          </mxGeometry>
        </mxCell>
        <mxCell id="btYnKBBTRqczE2dWw31I-17" value="" style="curved=1;startArrow=none;endArrow=block;exitX=1;exitY=0.53;entryX=0.5;entryY=0.01;rounded=0;" edge="1" parent="1" source="btYnKBBTRqczE2dWw31I-3" target="btYnKBBTRqczE2dWw31I-10">
          <mxGeometry relative="1" as="geometry">
            <Array as="points">
              <mxPoint x="1651" y="129" />
            </Array>
          </mxGeometry>
        </mxCell>
      </root>
    </mxGraphModel>
  </diagram>
  <diagram id="xLkmrqQi2SZZKTXT5LVA" name="class">
    <mxGraphModel dx="1018" dy="690" grid="1" gridSize="10" guides="1" tooltips="1" connect="1" arrows="1" fold="1" page="1" pageScale="1" pageWidth="827" pageHeight="1169" math="0" shadow="0">
      <root>
        <mxCell id="0" />
        <mxCell id="1" parent="0" />
        <mxCell id="_fFwBtWpiA0BB_60ZeJQ-1" value="SafetyMonitoringSystem" style="swimlane;fontStyle=1;align=center;verticalAlign=top;childLayout=stackLayout;horizontal=1;startSize=34.666666666666664;horizontalStack=0;resizeParent=1;resizeParentMax=0;resizeLast=0;collapsible=0;marginBottom=0;" vertex="1" parent="1">
          <mxGeometry x="455" y="20" width="255" height="217.66666666666666" as="geometry" />
        </mxCell>
        <mxCell id="_fFwBtWpiA0BB_60ZeJQ-2" value="-model: YOLO" style="text;strokeColor=none;fillColor=none;align=left;verticalAlign=top;spacingLeft=4;spacingRight=4;overflow=hidden;rotatable=0;points=[[0,0.5],[1,0.5]];portConstraint=eastwest;" vertex="1" parent="_fFwBtWpiA0BB_60ZeJQ-1">
          <mxGeometry y="34.666666666666664" width="255" height="35" as="geometry" />
        </mxCell>
        <mxCell id="_fFwBtWpiA0BB_60ZeJQ-3" style="line;strokeWidth=1;fillColor=none;align=left;verticalAlign=middle;spacingTop=-1;spacingLeft=3;spacingRight=3;rotatable=0;labelPosition=right;points=[];portConstraint=eastwest;strokeColor=inherit;" vertex="1" parent="_fFwBtWpiA0BB_60ZeJQ-1">
          <mxGeometry y="69.66666666666666" width="255" height="8" as="geometry" />
        </mxCell>
        <mxCell id="_fFwBtWpiA0BB_60ZeJQ-4" value="+load_model()" style="text;strokeColor=none;fillColor=none;align=left;verticalAlign=top;spacingLeft=4;spacingRight=4;overflow=hidden;rotatable=0;points=[[0,0.5],[1,0.5]];portConstraint=eastwest;" vertex="1" parent="_fFwBtWpiA0BB_60ZeJQ-1">
          <mxGeometry y="77.66666666666666" width="255" height="35" as="geometry" />
        </mxCell>
        <mxCell id="_fFwBtWpiA0BB_60ZeJQ-5" value="+process_image()" style="text;strokeColor=none;fillColor=none;align=left;verticalAlign=top;spacingLeft=4;spacingRight=4;overflow=hidden;rotatable=0;points=[[0,0.5],[1,0.5]];portConstraint=eastwest;" vertex="1" parent="_fFwBtWpiA0BB_60ZeJQ-1">
          <mxGeometry y="112.66666666666666" width="255" height="35" as="geometry" />
        </mxCell>
        <mxCell id="_fFwBtWpiA0BB_60ZeJQ-6" value="+process_video()" style="text;strokeColor=none;fillColor=none;align=left;verticalAlign=top;spacingLeft=4;spacingRight=4;overflow=hidden;rotatable=0;points=[[0,0.5],[1,0.5]];portConstraint=eastwest;" vertex="1" parent="_fFwBtWpiA0BB_60ZeJQ-1">
          <mxGeometry y="147.66666666666666" width="255" height="35" as="geometry" />
        </mxCell>
        <mxCell id="_fFwBtWpiA0BB_60ZeJQ-7" value="+process_webcam()" style="text;strokeColor=none;fillColor=none;align=left;verticalAlign=top;spacingLeft=4;spacingRight=4;overflow=hidden;rotatable=0;points=[[0,0.5],[1,0.5]];portConstraint=eastwest;" vertex="1" parent="_fFwBtWpiA0BB_60ZeJQ-1">
          <mxGeometry y="182.66666666666666" width="255" height="35" as="geometry" />
        </mxCell>
        <mxCell id="_fFwBtWpiA0BB_60ZeJQ-8" value="YOLOModel" style="swimlane;fontStyle=1;align=center;verticalAlign=top;childLayout=stackLayout;horizontal=1;startSize=40.57142857142857;horizontalStack=0;resizeParent=1;resizeParentMax=0;resizeLast=0;collapsible=0;marginBottom=0;" vertex="1" parent="1">
          <mxGeometry x="20" y="298" width="191" height="130.57142857142856" as="geometry" />
        </mxCell>
        <mxCell id="_fFwBtWpiA0BB_60ZeJQ-9" style="line;strokeWidth=1;fillColor=none;align=left;verticalAlign=middle;spacingTop=-1;spacingLeft=3;spacingRight=3;rotatable=0;labelPosition=right;points=[];portConstraint=eastwest;strokeColor=inherit;" vertex="1" parent="_fFwBtWpiA0BB_60ZeJQ-8">
          <mxGeometry y="40.57142857142857" width="191" height="8" as="geometry" />
        </mxCell>
        <mxCell id="_fFwBtWpiA0BB_60ZeJQ-10" value="+predict()" style="text;strokeColor=none;fillColor=none;align=left;verticalAlign=top;spacingLeft=4;spacingRight=4;overflow=hidden;rotatable=0;points=[[0,0.5],[1,0.5]];portConstraint=eastwest;" vertex="1" parent="_fFwBtWpiA0BB_60ZeJQ-8">
          <mxGeometry y="48.57142857142857" width="191" height="41" as="geometry" />
        </mxCell>
        <mxCell id="_fFwBtWpiA0BB_60ZeJQ-11" value="+process_frame()" style="text;strokeColor=none;fillColor=none;align=left;verticalAlign=top;spacingLeft=4;spacingRight=4;overflow=hidden;rotatable=0;points=[[0,0.5],[1,0.5]];portConstraint=eastwest;" vertex="1" parent="_fFwBtWpiA0BB_60ZeJQ-8">
          <mxGeometry y="89.57142857142857" width="191" height="41" as="geometry" />
        </mxCell>
        <mxCell id="_fFwBtWpiA0BB_60ZeJQ-12" value="ViolationAnalyzer" style="swimlane;fontStyle=1;align=center;verticalAlign=top;childLayout=stackLayout;horizontal=1;startSize=36.888888888888886;horizontalStack=0;resizeParent=1;resizeParentMax=0;resizeLast=0;collapsible=0;marginBottom=0;" vertex="1" parent="1">
          <mxGeometry x="261" y="286" width="294" height="155.88888888888889" as="geometry" />
        </mxCell>
        <mxCell id="_fFwBtWpiA0BB_60ZeJQ-13" style="line;strokeWidth=1;fillColor=none;align=left;verticalAlign=middle;spacingTop=-1;spacingLeft=3;spacingRight=3;rotatable=0;labelPosition=right;points=[];portConstraint=eastwest;strokeColor=inherit;" vertex="1" parent="_fFwBtWpiA0BB_60ZeJQ-12">
          <mxGeometry y="36.888888888888886" width="294" height="8" as="geometry" />
        </mxCell>
        <mxCell id="_fFwBtWpiA0BB_60ZeJQ-14" value="+analyze_safety_violations()" style="text;strokeColor=none;fillColor=none;align=left;verticalAlign=top;spacingLeft=4;spacingRight=4;overflow=hidden;rotatable=0;points=[[0,0.5],[1,0.5]];portConstraint=eastwest;" vertex="1" parent="_fFwBtWpiA0BB_60ZeJQ-12">
          <mxGeometry y="44.888888888888886" width="294" height="37" as="geometry" />
        </mxCell>
        <mxCell id="_fFwBtWpiA0BB_60ZeJQ-15" value="+analyze_video_violations()" style="text;strokeColor=none;fillColor=none;align=left;verticalAlign=top;spacingLeft=4;spacingRight=4;overflow=hidden;rotatable=0;points=[[0,0.5],[1,0.5]];portConstraint=eastwest;" vertex="1" parent="_fFwBtWpiA0BB_60ZeJQ-12">
          <mxGeometry y="81.88888888888889" width="294" height="37" as="geometry" />
        </mxCell>
        <mxCell id="_fFwBtWpiA0BB_60ZeJQ-16" value="+format_timestamp()" style="text;strokeColor=none;fillColor=none;align=left;verticalAlign=top;spacingLeft=4;spacingRight=4;overflow=hidden;rotatable=0;points=[[0,0.5],[1,0.5]];portConstraint=eastwest;" vertex="1" parent="_fFwBtWpiA0BB_60ZeJQ-12">
          <mxGeometry y="118.88888888888889" width="294" height="37" as="geometry" />
        </mxCell>
        <mxCell id="_fFwBtWpiA0BB_60ZeJQ-17" value="VisualizationEngine" style="swimlane;fontStyle=1;align=center;verticalAlign=top;childLayout=stackLayout;horizontal=1;startSize=36.888888888888886;horizontalStack=0;resizeParent=1;resizeParentMax=0;resizeLast=0;collapsible=0;marginBottom=0;" vertex="1" parent="1">
          <mxGeometry x="605" y="286" width="301" height="155.88888888888889" as="geometry" />
        </mxCell>
        <mxCell id="_fFwBtWpiA0BB_60ZeJQ-18" style="line;strokeWidth=1;fillColor=none;align=left;verticalAlign=middle;spacingTop=-1;spacingLeft=3;spacingRight=3;rotatable=0;labelPosition=right;points=[];portConstraint=eastwest;strokeColor=inherit;" vertex="1" parent="_fFwBtWpiA0BB_60ZeJQ-17">
          <mxGeometry y="36.888888888888886" width="301" height="8" as="geometry" />
        </mxCell>
        <mxCell id="_fFwBtWpiA0BB_60ZeJQ-19" value="+draw_detections()" style="text;strokeColor=none;fillColor=none;align=left;verticalAlign=top;spacingLeft=4;spacingRight=4;overflow=hidden;rotatable=0;points=[[0,0.5],[1,0.5]];portConstraint=eastwest;" vertex="1" parent="_fFwBtWpiA0BB_60ZeJQ-17">
          <mxGeometry y="44.888888888888886" width="301" height="37" as="geometry" />
        </mxCell>
        <mxCell id="_fFwBtWpiA0BB_60ZeJQ-20" value="+highlight_violation_frame()" style="text;strokeColor=none;fillColor=none;align=left;verticalAlign=top;spacingLeft=4;spacingRight=4;overflow=hidden;rotatable=0;points=[[0,0.5],[1,0.5]];portConstraint=eastwest;" vertex="1" parent="_fFwBtWpiA0BB_60ZeJQ-17">
          <mxGeometry y="81.88888888888889" width="301" height="37" as="geometry" />
        </mxCell>
        <mxCell id="_fFwBtWpiA0BB_60ZeJQ-21" value="+create_legend()" style="text;strokeColor=none;fillColor=none;align=left;verticalAlign=top;spacingLeft=4;spacingRight=4;overflow=hidden;rotatable=0;points=[[0,0.5],[1,0.5]];portConstraint=eastwest;" vertex="1" parent="_fFwBtWpiA0BB_60ZeJQ-17">
          <mxGeometry y="118.88888888888889" width="301" height="37" as="geometry" />
        </mxCell>
        <mxCell id="_fFwBtWpiA0BB_60ZeJQ-22" value="MediaProcessor" style="swimlane;fontStyle=1;align=center;verticalAlign=top;childLayout=stackLayout;horizontal=1;startSize=40.57142857142857;horizontalStack=0;resizeParent=1;resizeParentMax=0;resizeLast=0;collapsible=0;marginBottom=0;" vertex="1" parent="1">
          <mxGeometry x="956" y="298" width="266" height="130.57142857142856" as="geometry" />
        </mxCell>
        <mxCell id="_fFwBtWpiA0BB_60ZeJQ-23" style="line;strokeWidth=1;fillColor=none;align=left;verticalAlign=middle;spacingTop=-1;spacingLeft=3;spacingRight=3;rotatable=0;labelPosition=right;points=[];portConstraint=eastwest;strokeColor=inherit;" vertex="1" parent="_fFwBtWpiA0BB_60ZeJQ-22">
          <mxGeometry y="40.57142857142857" width="266" height="8" as="geometry" />
        </mxCell>
        <mxCell id="_fFwBtWpiA0BB_60ZeJQ-24" value="+compress_video()" style="text;strokeColor=none;fillColor=none;align=left;verticalAlign=top;spacingLeft=4;spacingRight=4;overflow=hidden;rotatable=0;points=[[0,0.5],[1,0.5]];portConstraint=eastwest;" vertex="1" parent="_fFwBtWpiA0BB_60ZeJQ-22">
          <mxGeometry y="48.57142857142857" width="266" height="41" as="geometry" />
        </mxCell>
        <mxCell id="_fFwBtWpiA0BB_60ZeJQ-25" value="+get_video_display_size()" style="text;strokeColor=none;fillColor=none;align=left;verticalAlign=top;spacingLeft=4;spacingRight=4;overflow=hidden;rotatable=0;points=[[0,0.5],[1,0.5]];portConstraint=eastwest;" vertex="1" parent="_fFwBtWpiA0BB_60ZeJQ-22">
          <mxGeometry y="89.57142857142857" width="266" height="41" as="geometry" />
        </mxCell>
        <mxCell id="_fFwBtWpiA0BB_60ZeJQ-26" value="" style="curved=1;startArrow=none;endArrow=open;endSize=12;exitX=0;exitY=0.67;entryX=0.5;entryY=0;rounded=0;" edge="1" parent="1" source="_fFwBtWpiA0BB_60ZeJQ-1" target="_fFwBtWpiA0BB_60ZeJQ-8">
          <mxGeometry relative="1" as="geometry">
            <Array as="points">
              <mxPoint x="116" y="261" />
            </Array>
          </mxGeometry>
        </mxCell>
        <mxCell id="_fFwBtWpiA0BB_60ZeJQ-27" value="" style="curved=1;startArrow=none;endArrow=open;endSize=12;exitX=0;exitY=0.95;entryX=0.5;entryY=0;rounded=0;" edge="1" parent="1" source="_fFwBtWpiA0BB_60ZeJQ-1" target="_fFwBtWpiA0BB_60ZeJQ-12">
          <mxGeometry relative="1" as="geometry">
            <Array as="points">
              <mxPoint x="408" y="261" />
            </Array>
          </mxGeometry>
        </mxCell>
        <mxCell id="_fFwBtWpiA0BB_60ZeJQ-28" value="" style="curved=1;startArrow=none;endArrow=open;endSize=12;exitX=1;exitY=0.95;entryX=0.5;entryY=0;rounded=0;" edge="1" parent="1" source="_fFwBtWpiA0BB_60ZeJQ-1" target="_fFwBtWpiA0BB_60ZeJQ-17">
          <mxGeometry relative="1" as="geometry">
            <Array as="points">
              <mxPoint x="756" y="261" />
            </Array>
          </mxGeometry>
        </mxCell>
        <mxCell id="_fFwBtWpiA0BB_60ZeJQ-29" value="" style="curved=1;startArrow=none;endArrow=open;endSize=12;exitX=1;exitY=0.65;entryX=0.5;entryY=0;rounded=0;" edge="1" parent="1" source="_fFwBtWpiA0BB_60ZeJQ-1" target="_fFwBtWpiA0BB_60ZeJQ-22">
          <mxGeometry relative="1" as="geometry">
            <Array as="points">
              <mxPoint x="1089" y="261" />
            </Array>
          </mxGeometry>
        </mxCell>
      </root>
    </mxGraphModel>
  </diagram>
  <diagram id="fhkGGKK685mRh6nJIecr" name="sequence">
    <mxGraphModel dx="1018" dy="690" grid="1" gridSize="10" guides="1" tooltips="1" connect="1" arrows="1" fold="1" page="1" pageScale="1" pageWidth="827" pageHeight="1169" math="0" shadow="0">
      <root>
        <mxCell id="0" />
        <mxCell id="1" parent="0" />
        <mxCell id="eqCYEC7XTgFEhDOlDXVw-1" value="User" style="shape=umlLifeline;perimeter=lifelinePerimeter;whiteSpace=wrap;container=1;dropTarget=0;collapsible=0;recursiveResize=0;outlineConnect=0;portConstraint=eastwest;newEdgeStyle={&quot;edgeStyle&quot;:&quot;elbowEdgeStyle&quot;,&quot;elbow&quot;:&quot;vertical&quot;,&quot;curved&quot;:0,&quot;rounded&quot;:0};size=65;" vertex="1" parent="1">
          <mxGeometry x="20" y="20" width="150" height="496" as="geometry" />
        </mxCell>
        <mxCell id="eqCYEC7XTgFEhDOlDXVw-2" value="UI" style="shape=umlLifeline;perimeter=lifelinePerimeter;whiteSpace=wrap;container=1;dropTarget=0;collapsible=0;recursiveResize=0;outlineConnect=0;portConstraint=eastwest;newEdgeStyle={&quot;edgeStyle&quot;:&quot;elbowEdgeStyle&quot;,&quot;elbow&quot;:&quot;vertical&quot;,&quot;curved&quot;:0,&quot;rounded&quot;:0};size=65;" vertex="1" parent="1">
          <mxGeometry x="298" y="20" width="150" height="496" as="geometry" />
        </mxCell>
        <mxCell id="eqCYEC7XTgFEhDOlDXVw-3" value="Processor" style="shape=umlLifeline;perimeter=lifelinePerimeter;whiteSpace=wrap;container=1;dropTarget=0;collapsible=0;recursiveResize=0;outlineConnect=0;portConstraint=eastwest;newEdgeStyle={&quot;edgeStyle&quot;:&quot;elbowEdgeStyle&quot;,&quot;elbow&quot;:&quot;vertical&quot;,&quot;curved&quot;:0,&quot;rounded&quot;:0};size=65;" vertex="1" parent="1">
          <mxGeometry x="498" y="20" width="150" height="496" as="geometry" />
        </mxCell>
        <mxCell id="eqCYEC7XTgFEhDOlDXVw-4" value="YOLO" style="shape=umlLifeline;perimeter=lifelinePerimeter;whiteSpace=wrap;container=1;dropTarget=0;collapsible=0;recursiveResize=0;outlineConnect=0;portConstraint=eastwest;newEdgeStyle={&quot;edgeStyle&quot;:&quot;elbowEdgeStyle&quot;,&quot;elbow&quot;:&quot;vertical&quot;,&quot;curved&quot;:0,&quot;rounded&quot;:0};size=65;" vertex="1" parent="1">
          <mxGeometry x="698" y="20" width="150" height="496" as="geometry" />
        </mxCell>
        <mxCell id="eqCYEC7XTgFEhDOlDXVw-5" value="Analyzer" style="shape=umlLifeline;perimeter=lifelinePerimeter;whiteSpace=wrap;container=1;dropTarget=0;collapsible=0;recursiveResize=0;outlineConnect=0;portConstraint=eastwest;newEdgeStyle={&quot;edgeStyle&quot;:&quot;elbowEdgeStyle&quot;,&quot;elbow&quot;:&quot;vertical&quot;,&quot;curved&quot;:0,&quot;rounded&quot;:0};size=65;" vertex="1" parent="1">
          <mxGeometry x="898" y="20" width="150" height="496" as="geometry" />
        </mxCell>
        <mxCell id="eqCYEC7XTgFEhDOlDXVw-6" value="Visualizer" style="shape=umlLifeline;perimeter=lifelinePerimeter;whiteSpace=wrap;container=1;dropTarget=0;collapsible=0;recursiveResize=0;outlineConnect=0;portConstraint=eastwest;newEdgeStyle={&quot;edgeStyle&quot;:&quot;elbowEdgeStyle&quot;,&quot;elbow&quot;:&quot;vertical&quot;,&quot;curved&quot;:0,&quot;rounded&quot;:0};size=65;" vertex="1" parent="1">
          <mxGeometry x="1100" y="20" width="150" height="496" as="geometry" />
        </mxCell>
        <mxCell id="eqCYEC7XTgFEhDOlDXVw-7" value="Upload Media/Start Webcam" style="verticalAlign=bottom;edgeStyle=elbowEdgeStyle;elbow=vertical;curved=0;rounded=0;endArrow=block;" edge="1" parent="1" source="eqCYEC7XTgFEhDOlDXVw-1" target="eqCYEC7XTgFEhDOlDXVw-2">
          <mxGeometry relative="1" as="geometry">
            <Array as="points">
              <mxPoint x="243" y="123" />
            </Array>
          </mxGeometry>
        </mxCell>
        <mxCell id="eqCYEC7XTgFEhDOlDXVw-8" value="Process Input" style="verticalAlign=bottom;edgeStyle=elbowEdgeStyle;elbow=vertical;curved=0;rounded=0;endArrow=block;" edge="1" parent="1" source="eqCYEC7XTgFEhDOlDXVw-2" target="eqCYEC7XTgFEhDOlDXVw-3">
          <mxGeometry relative="1" as="geometry">
            <Array as="points">
              <mxPoint x="482" y="171" />
            </Array>
          </mxGeometry>
        </mxCell>
        <mxCell id="eqCYEC7XTgFEhDOlDXVw-9" value="Process Frame" style="verticalAlign=bottom;edgeStyle=elbowEdgeStyle;elbow=vertical;curved=0;rounded=0;endArrow=block;" edge="1" parent="1" source="eqCYEC7XTgFEhDOlDXVw-3" target="eqCYEC7XTgFEhDOlDXVw-4">
          <mxGeometry relative="1" as="geometry">
            <Array as="points">
              <mxPoint x="682" y="219" />
            </Array>
          </mxGeometry>
        </mxCell>
        <mxCell id="eqCYEC7XTgFEhDOlDXVw-10" value="Get Predictions" style="verticalAlign=bottom;edgeStyle=elbowEdgeStyle;elbow=vertical;curved=0;rounded=0;endArrow=block;" edge="1" parent="1" source="eqCYEC7XTgFEhDOlDXVw-4" target="eqCYEC7XTgFEhDOlDXVw-5">
          <mxGeometry relative="1" as="geometry">
            <Array as="points">
              <mxPoint x="882" y="267" />
            </Array>
          </mxGeometry>
        </mxCell>
        <mxCell id="eqCYEC7XTgFEhDOlDXVw-11" value="Analyze Violations" style="verticalAlign=bottom;edgeStyle=elbowEdgeStyle;elbow=vertical;curved=0;rounded=0;endArrow=block;" edge="1" parent="1" source="eqCYEC7XTgFEhDOlDXVw-5" target="eqCYEC7XTgFEhDOlDXVw-6">
          <mxGeometry relative="1" as="geometry">
            <Array as="points">
              <mxPoint x="1083" y="315" />
            </Array>
          </mxGeometry>
        </mxCell>
        <mxCell id="eqCYEC7XTgFEhDOlDXVw-12" value="Display Results" style="verticalAlign=bottom;edgeStyle=elbowEdgeStyle;elbow=vertical;curved=0;rounded=0;endArrow=block;" edge="1" parent="1" source="eqCYEC7XTgFEhDOlDXVw-6" target="eqCYEC7XTgFEhDOlDXVw-2">
          <mxGeometry relative="1" as="geometry">
            <Array as="points">
              <mxPoint x="786" y="363" />
            </Array>
          </mxGeometry>
        </mxCell>
        <mxCell id="eqCYEC7XTgFEhDOlDXVw-13" value="Show Annotations &amp; Metrics" style="verticalAlign=bottom;edgeStyle=elbowEdgeStyle;elbow=vertical;curved=0;rounded=0;endArrow=block;" edge="1" parent="1" source="eqCYEC7XTgFEhDOlDXVw-2" target="eqCYEC7XTgFEhDOlDXVw-1">
          <mxGeometry relative="1" as="geometry">
            <Array as="points">
              <mxPoint x="246" y="411" />
            </Array>
          </mxGeometry>
        </mxCell>
      </root>
    </mxGraphModel>
  </diagram>
  <diagram id="V4LUd6zZDzlYzKAhpTyY" name="activity">
    <mxGraphModel dx="1018" dy="690" grid="1" gridSize="10" guides="1" tooltips="1" connect="1" arrows="1" fold="1" page="1" pageScale="1" pageWidth="827" pageHeight="1169" math="0" shadow="0">
      <root>
        <mxCell id="0" />
        <mxCell id="1" parent="0" />
        <mxCell id="KOwWlKrmTsG8E0WypevS-1" value="Start" style="whiteSpace=wrap;strokeWidth=2;" vertex="1" parent="1">
          <mxGeometry x="261" y="20" width="95" height="54" as="geometry" />
        </mxCell>
        <mxCell id="KOwWlKrmTsG8E0WypevS-2" value="Input Type?" style="rhombus;strokeWidth=2;whiteSpace=wrap;" vertex="1" parent="1">
          <mxGeometry x="242" y="124" width="135" height="135" as="geometry" />
        </mxCell>
        <mxCell id="KOwWlKrmTsG8E0WypevS-3" value="Process Image" style="whiteSpace=wrap;strokeWidth=2;" vertex="1" parent="1">
          <mxGeometry x="20" y="331" width="160" height="54" as="geometry" />
        </mxCell>
        <mxCell id="KOwWlKrmTsG8E0WypevS-4" value="Process Video" style="whiteSpace=wrap;strokeWidth=2;" vertex="1" parent="1">
          <mxGeometry x="230" y="331" width="157" height="54" as="geometry" />
        </mxCell>
        <mxCell id="KOwWlKrmTsG8E0WypevS-5" value="Process Webcam Stream" style="whiteSpace=wrap;strokeWidth=2;" vertex="1" parent="1">
          <mxGeometry x="438" y="331" width="233" height="54" as="geometry" />
        </mxCell>
        <mxCell id="KOwWlKrmTsG8E0WypevS-6" value="Load YOLO Model" style="whiteSpace=wrap;strokeWidth=2;" vertex="1" parent="1">
          <mxGeometry x="217" y="435" width="184" height="54" as="geometry" />
        </mxCell>
        <mxCell id="KOwWlKrmTsG8E0WypevS-7" value="Process Frame" style="whiteSpace=wrap;strokeWidth=2;" vertex="1" parent="1">
          <mxGeometry x="228" y="539" width="162" height="54" as="geometry" />
        </mxCell>
        <mxCell id="KOwWlKrmTsG8E0WypevS-8" value="Detect Objects" style="whiteSpace=wrap;strokeWidth=2;" vertex="1" parent="1">
          <mxGeometry x="160" y="643" width="168" height="54" as="geometry" />
        </mxCell>
        <mxCell id="KOwWlKrmTsG8E0WypevS-9" value="Analyze Violations" style="whiteSpace=wrap;strokeWidth=2;" vertex="1" parent="1">
          <mxGeometry x="149" y="747" width="190" height="54" as="geometry" />
        </mxCell>
        <mxCell id="KOwWlKrmTsG8E0WypevS-10" value="Draw Annotations" style="whiteSpace=wrap;strokeWidth=2;" vertex="1" parent="1">
          <mxGeometry x="151" y="874" width="185" height="54" as="geometry" />
        </mxCell>
        <mxCell id="KOwWlKrmTsG8E0WypevS-11" value="Display Results" style="whiteSpace=wrap;strokeWidth=2;" vertex="1" parent="1">
          <mxGeometry x="161" y="978" width="166" height="54" as="geometry" />
        </mxCell>
        <mxCell id="KOwWlKrmTsG8E0WypevS-12" value="Continue?" style="rhombus;strokeWidth=2;whiteSpace=wrap;" vertex="1" parent="1">
          <mxGeometry x="247" y="1082" width="124" height="124" as="geometry" />
        </mxCell>
        <mxCell id="KOwWlKrmTsG8E0WypevS-13" value="End" style="whiteSpace=wrap;strokeWidth=2;" vertex="1" parent="1">
          <mxGeometry x="266" y="1278" width="86" height="54" as="geometry" />
        </mxCell>
        <mxCell id="KOwWlKrmTsG8E0WypevS-14" value="" style="curved=1;startArrow=none;endArrow=block;exitX=0.5;exitY=1;entryX=0.5;entryY=0;rounded=0;" edge="1" parent="1" source="KOwWlKrmTsG8E0WypevS-1" target="KOwWlKrmTsG8E0WypevS-2">
          <mxGeometry relative="1" as="geometry">
            <Array as="points" />
          </mxGeometry>
        </mxCell>
        <mxCell id="KOwWlKrmTsG8E0WypevS-15" value="Image" style="curved=1;startArrow=none;endArrow=block;exitX=0;exitY=0.75;entryX=0.5;entryY=0;rounded=0;" edge="1" parent="1" source="KOwWlKrmTsG8E0WypevS-2" target="KOwWlKrmTsG8E0WypevS-3">
          <mxGeometry relative="1" as="geometry">
            <Array as="points">
              <mxPoint x="100" y="295" />
            </Array>
          </mxGeometry>
        </mxCell>
        <mxCell id="KOwWlKrmTsG8E0WypevS-16" value="Video" style="curved=1;startArrow=none;endArrow=block;exitX=0.5;exitY=1;entryX=0.5;entryY=0;rounded=0;" edge="1" parent="1" source="KOwWlKrmTsG8E0WypevS-2" target="KOwWlKrmTsG8E0WypevS-4">
          <mxGeometry relative="1" as="geometry">
            <Array as="points" />
          </mxGeometry>
        </mxCell>
        <mxCell id="KOwWlKrmTsG8E0WypevS-17" value="Webcam" style="curved=1;startArrow=none;endArrow=block;exitX=0.99;exitY=0.71;entryX=0.5;entryY=0;rounded=0;" edge="1" parent="1" source="KOwWlKrmTsG8E0WypevS-2" target="KOwWlKrmTsG8E0WypevS-5">
          <mxGeometry relative="1" as="geometry">
            <Array as="points">
              <mxPoint x="554" y="295" />
            </Array>
          </mxGeometry>
        </mxCell>
        <mxCell id="KOwWlKrmTsG8E0WypevS-18" value="" style="curved=1;startArrow=none;endArrow=block;exitX=0.5;exitY=1;entryX=0;entryY=0.08;rounded=0;" edge="1" parent="1" source="KOwWlKrmTsG8E0WypevS-3" target="KOwWlKrmTsG8E0WypevS-6">
          <mxGeometry relative="1" as="geometry">
            <Array as="points">
              <mxPoint x="100" y="410" />
            </Array>
          </mxGeometry>
        </mxCell>
        <mxCell id="KOwWlKrmTsG8E0WypevS-19" value="" style="curved=1;startArrow=none;endArrow=block;exitX=0.5;exitY=1;entryX=0.5;entryY=0;rounded=0;" edge="1" parent="1" source="KOwWlKrmTsG8E0WypevS-4" target="KOwWlKrmTsG8E0WypevS-6">
          <mxGeometry relative="1" as="geometry">
            <Array as="points" />
          </mxGeometry>
        </mxCell>
        <mxCell id="KOwWlKrmTsG8E0WypevS-20" value="" style="curved=1;startArrow=none;endArrow=block;exitX=0.5;exitY=1;entryX=1;entryY=0.14;rounded=0;" edge="1" parent="1" source="KOwWlKrmTsG8E0WypevS-5" target="KOwWlKrmTsG8E0WypevS-6">
          <mxGeometry relative="1" as="geometry">
            <Array as="points">
              <mxPoint x="554" y="410" />
            </Array>
          </mxGeometry>
        </mxCell>
        <mxCell id="KOwWlKrmTsG8E0WypevS-21" value="" style="curved=1;startArrow=none;endArrow=block;exitX=0.5;exitY=1;entryX=0.5;entryY=0;rounded=0;" edge="1" parent="1" source="KOwWlKrmTsG8E0WypevS-6" target="KOwWlKrmTsG8E0WypevS-7">
          <mxGeometry relative="1" as="geometry">
            <Array as="points" />
          </mxGeometry>
        </mxCell>
        <mxCell id="KOwWlKrmTsG8E0WypevS-22" value="" style="curved=1;startArrow=none;endArrow=block;exitX=0.29;exitY=1;entryX=0.5;entryY=0;rounded=0;" edge="1" parent="1" source="KOwWlKrmTsG8E0WypevS-7" target="KOwWlKrmTsG8E0WypevS-8">
          <mxGeometry relative="1" as="geometry">
            <Array as="points">
              <mxPoint x="244" y="618" />
            </Array>
          </mxGeometry>
        </mxCell>
        <mxCell id="KOwWlKrmTsG8E0WypevS-23" value="" style="curved=1;startArrow=none;endArrow=block;exitX=0.5;exitY=1;entryX=0.5;entryY=0;rounded=0;" edge="1" parent="1" source="KOwWlKrmTsG8E0WypevS-8" target="KOwWlKrmTsG8E0WypevS-9">
          <mxGeometry relative="1" as="geometry">
            <Array as="points" />
          </mxGeometry>
        </mxCell>
        <mxCell id="KOwWlKrmTsG8E0WypevS-24" value="" style="curved=1;startArrow=none;endArrow=block;exitX=0.5;exitY=1;entryX=0.5;entryY=-0.01;rounded=0;" edge="1" parent="1" source="KOwWlKrmTsG8E0WypevS-9" target="KOwWlKrmTsG8E0WypevS-10">
          <mxGeometry relative="1" as="geometry">
            <Array as="points" />
          </mxGeometry>
        </mxCell>
        <mxCell id="KOwWlKrmTsG8E0WypevS-25" value="" style="curved=1;startArrow=none;endArrow=block;exitX=0.5;exitY=0.99;entryX=0.5;entryY=-0.01;rounded=0;" edge="1" parent="1" source="KOwWlKrmTsG8E0WypevS-10" target="KOwWlKrmTsG8E0WypevS-11">
          <mxGeometry relative="1" as="geometry">
            <Array as="points" />
          </mxGeometry>
        </mxCell>
        <mxCell id="KOwWlKrmTsG8E0WypevS-26" value="" style="curved=1;startArrow=none;endArrow=block;exitX=0.5;exitY=0.99;entryX=0.13;entryY=0;rounded=0;" edge="1" parent="1" source="KOwWlKrmTsG8E0WypevS-11" target="KOwWlKrmTsG8E0WypevS-12">
          <mxGeometry relative="1" as="geometry">
            <Array as="points">
              <mxPoint x="244" y="1057" />
            </Array>
          </mxGeometry>
        </mxCell>
        <mxCell id="KOwWlKrmTsG8E0WypevS-27" value="Yes" style="curved=1;startArrow=none;endArrow=block;exitX=0.87;exitY=0;entryX=0.71;entryY=1;rounded=0;" edge="1" parent="1" source="KOwWlKrmTsG8E0WypevS-12" target="KOwWlKrmTsG8E0WypevS-7">
          <mxGeometry relative="1" as="geometry">
            <Array as="points">
              <mxPoint x="374" y="1057" />
              <mxPoint x="374" y="618" />
            </Array>
          </mxGeometry>
        </mxCell>
        <mxCell id="KOwWlKrmTsG8E0WypevS-28" value="No" style="curved=1;startArrow=none;endArrow=block;exitX=0.5;exitY=1;entryX=0.5;entryY=0;rounded=0;" edge="1" parent="1" source="KOwWlKrmTsG8E0WypevS-12" target="KOwWlKrmTsG8E0WypevS-13">
          <mxGeometry relative="1" as="geometry">
            <Array as="points" />
          </mxGeometry>
        </mxCell>
      </root>
    </mxGraphModel>
  </diagram>
</mxfile>
